<svg width="48" height="48" fill="none" xmlns="http://www.w3.org/2000/svg"><path fill-rule="evenodd" clip-rule="evenodd" d="M0 5.653A5.653 5.653 0 015.64 0h19.773a5.653 5.653 0 015.64 5.653v5.688a5.653 5.653 0 005.654 5.653h5.64A5.653 5.653 0 0148 22.634V42.36A5.653 5.653 0 0142.347 48h-19.76a5.641 5.641 0 01-5.653-5.64v-5.653a5.64 5.64 0 00-5.64-5.641H5.64A5.64 5.64 0 010 25.413V5.653zm20.12 10.946a3.593 3.593 0 00-3.533 3.593v8.934a3.593 3.593 0 003.533 3.593h8.934a3.593 3.593 0 003.593-3.593v-8.934a3.593 3.593 0 00-3.593-3.593H20.12z" fill="url(#paint0_linear)"/><defs><linearGradient id="paint0_linear" x1="-1.223" y1="1.2" x2="55.176" y2="50.4" gradientUnits="userSpaceOnUse"><stop stop-color="#635DFF"/><stop offset="1" stop-color="#3885FF"/></linearGradient></defs></svg>
